<svg width="30" height="40" viewBox="0 0 30 40" fill="none" xmlns="http://www.w3.org/2000/svg">
<g clip-path="url(#clip0_3_78)">
<path d="M16.1612 0C16.8866 0.126249 17.6256 0.202415 18.3364 0.38605C24.0125 1.85304 27.7093 5.42661 29.4061 11.0222C30.4129 14.3433 30.0523 17.654 28.9965 20.9103C27.8886 24.3285 26.1293 27.4106 24.0688 30.331C21.7435 33.626 19.0806 36.6278 16.1404 39.3813C15.86 39.6432 15.489 39.8539 15.1221 39.9656C14.7136 40.0897 14.3477 39.8571 14.0371 39.5701C12.0412 37.7192 10.1819 35.7399 8.44863 33.6417C6.27554 31.0092 4.3255 28.2255 2.76943 25.1788C1.55313 22.7978 0.62136 20.3167 0.200293 17.6623C-0.934713 10.5298 2.86115 3.80624 9.34913 1.10702C10.6978 0.545687 12.1017 0.194068 13.5598 0.068863C13.6473 0.0615593 13.7328 0.0239977 13.8193 0.00104338C14.601 0 15.3806 0 16.1612 0ZM14.9835 6.67867C10.3914 6.6891 6.68827 10.3983 6.68515 14.9923C6.68202 19.5811 10.383 23.2934 14.9783 23.3122C19.5652 23.331 23.3215 19.5665 23.2965 14.9777C23.2714 10.3701 19.5631 6.66719 14.9835 6.67867Z" fill="white"/>
</g>
<defs>
<clipPath id="clip0_3_78">
<rect width="30" height="40" fill="white"/>
</clipPath>
</defs>
</svg>
